<?xml version="1.0" standalone="no"?>
<!DOCTYPE svg PUBLIC "-//W3C//DTD SVG 20010904//EN"
 "http://www.w3.org/TR/2001/REC-SVG-20010904/DTD/svg10.dtd">
<svg version="1.0" xmlns="http://www.w3.org/2000/svg"
 width="640.000000pt" height="640.000000pt" viewBox="0 0 640.000000 640.000000"
 preserveAspectRatio="xMidYMid meet">

<g transform="translate(0.000000,640.000000) scale(0.100000,-0.100000)"
fill="#000000" stroke="none">
<path d="M4539 5118 c-79 -95 -153 -184 -164 -197 -11 -14 -36 -43 -55 -65
-20 -23 -103 -122 -185 -221 -82 -99 -152 -182 -155 -185 -4 -3 -98 -115 -211
-249 -112 -134 -228 -272 -256 -307 -29 -34 -53 -66 -53 -72 0 -9 32 -42 42
-42 6 0 56 59 308 360 121 144 213 254 244 290 11 14 55 66 96 115 41 50 77
92 80 95 10 9 205 243 230 275 14 17 46 56 72 86 25 30 74 88 109 129 34 41
69 83 77 92 13 15 13 20 -2 43 -9 14 -20 25 -25 25 -5 0 -73 -78 -152 -172z"/>
<path d="M1838 5019 c-17 -18 -14 -25 80 -174 343 -547 431 -686 547 -871 72
-113 154 -244 184 -292 29 -48 68 -109 86 -137 17 -27 70 -111 117 -185 47
-74 150 -238 230 -365 220 -348 551 -874 582 -925 15 -25 94 -151 176 -280 82
-129 179 -283 215 -342 37 -60 72 -108 79 -108 7 0 21 9 30 19 20 22 55 -38
-417 711 -71 113 -186 295 -254 405 -69 110 -140 223 -158 250 -18 28 -72 113
-120 190 -171 273 -359 572 -478 760 -66 105 -158 251 -205 325 -47 74 -104
164 -127 200 -23 36 -59 93 -81 128 -77 124 -170 272 -238 379 -37 59 -100
159 -139 221 -39 61 -75 112 -81 111 -6 0 -19 -9 -28 -20z"/>
<path d="M2337 4962 c-10 -10 -17 -21 -17 -25 0 -3 19 -34 43 -70 23 -35 58
-89 77 -121 19 -31 94 -150 166 -264 72 -114 193 -306 269 -427 148 -236 186
-295 239 -377 18 -29 79 -127 136 -218 56 -91 127 -203 157 -250 75 -118 343
-543 503 -800 14 -22 156 -247 315 -500 160 -253 312 -495 338 -537 65 -107
68 -109 96 -80 l22 24 -257 409 c-142 225 -279 443 -305 484 -26 41 -78 123
-116 183 -37 59 -80 127 -95 150 -41 65 -93 151 -97 162 -2 6 -10 17 -17 25
-7 9 -56 83 -107 165 -51 83 -214 341 -361 575 -148 234 -276 437 -285 452 -9
15 -50 80 -90 145 -41 65 -129 204 -194 308 -66 105 -150 237 -187 295 -37 58
-95 151 -131 207 -35 56 -69 103 -75 103 -6 0 -18 -8 -27 -18z"/>
<path d="M4755 4737 c-6 -7 -116 -138 -245 -292 -609 -728 -757 -904 -799
-951 -20 -22 -67 -78 -104 -123 -63 -78 -67 -85 -54 -105 8 -11 21 -22 28 -23
8 -1 67 62 131 140 124 150 295 355 332 397 12 14 78 93 146 175 69 83 130
156 137 163 7 7 29 34 50 60 21 26 41 49 44 52 16 14 366 435 379 455 13 21
12 26 -4 44 -22 24 -27 25 -41 8z"/>
<path d="M2793 3226 c-4 -8 -21 -29 -38 -48 -16 -18 -50 -58 -75 -88 -25 -30
-83 -100 -130 -155 -47 -56 -101 -120 -120 -144 -19 -24 -78 -94 -130 -156
-52 -61 -135 -160 -185 -220 -49 -59 -95 -113 -100 -119 -6 -6 -77 -92 -160
-191 -82 -99 -178 -213 -214 -253 l-64 -73 25 -25 25 -25 58 67 c33 37 131
153 219 259 342 409 461 551 496 591 19 22 54 62 76 90 23 27 118 141 213 253
159 191 170 206 157 225 -17 26 -42 32 -53 12z"/>
<path d="M2863 2677 c-13 -17 -35 -45 -51 -62 -15 -16 -140 -165 -277 -329
-421 -504 -548 -656 -570 -680 -6 -6 -77 -91 -159 -189 l-149 -179 25 -25 25
-24 204 243 c112 134 255 304 317 378 246 292 610 727 660 788 l52 65 -22 24
c-12 12 -24 23 -27 23 -3 0 -16 -15 -28 -33z"/>
</g>
</svg>
